<svg width="19" height="18" viewBox="0 0 19 18" fill="none" xmlns="http://www.w3.org/2000/svg">
<path d="M9.5002 0.272705C7.13009 0.272705 6.83264 0.283069 5.90176 0.325433C4.9727 0.367978 4.33853 0.515069 3.78364 0.730887C3.20966 0.953796 2.72277 1.25198 2.23769 1.73725C1.75225 2.22234 1.45408 2.70925 1.23045 3.28307C1.01409 3.83816 0.866822 4.47252 0.825005 5.40125C0.78337 6.33216 0.772461 6.6298 0.772461 8.99998C0.772461 11.3702 0.783006 11.6667 0.825187 12.5976C0.867913 13.5267 1.015 14.1609 1.23063 14.7158C1.45371 15.2898 1.75189 15.7767 2.23714 16.2618C2.72204 16.7472 3.20893 17.0462 3.78255 17.2691C4.33781 17.4849 4.97215 17.632 5.90103 17.6745C6.83191 17.7169 7.12918 17.7272 9.49911 17.7272C11.8694 17.7272 12.1659 17.7169 13.0968 17.6745C14.0259 17.632 14.6608 17.4849 15.216 17.2691C15.7898 17.0462 16.276 16.7472 16.7609 16.2618C17.2463 15.7767 17.5445 15.2898 17.7681 14.716C17.9827 14.1609 18.1299 13.5265 18.1736 12.5978C18.2154 11.6669 18.2263 11.3702 18.2263 8.99998C18.2263 6.6298 18.2154 6.33234 18.1736 5.40143C18.1299 4.47234 17.9827 3.83816 17.7681 3.28325C17.5445 2.70925 17.2463 2.22234 16.7609 1.73725C16.2754 1.2518 15.79 0.953614 15.2155 0.730887C14.6591 0.515069 14.0246 0.367978 13.0955 0.325433C12.1647 0.283069 11.8683 0.272705 9.49747 0.272705H9.5002ZM8.71731 1.84543C8.94967 1.84507 9.20893 1.84543 9.5002 1.84543C11.8303 1.84543 12.1065 1.8538 13.0266 1.89561C13.8775 1.93452 14.3393 2.07671 14.6469 2.19616C15.0542 2.35434 15.3446 2.54343 15.6498 2.84889C15.9553 3.15434 16.1444 3.44525 16.3029 3.85252C16.4223 4.1598 16.5647 4.62161 16.6034 5.47252C16.6453 6.39252 16.6543 6.66889 16.6543 8.99798C16.6543 11.3271 16.6453 11.6034 16.6034 12.5234C16.5645 13.3743 16.4223 13.8362 16.3029 14.1434C16.1447 14.5507 15.9553 14.8407 15.6498 15.146C15.3444 15.4514 15.0544 15.6405 14.6469 15.7987C14.3397 15.9187 13.8775 16.0605 13.0266 16.0994C12.1067 16.1412 11.8303 16.1503 9.5002 16.1503C7.1699 16.1503 6.89373 16.1412 5.97376 16.0994C5.12287 16.0602 4.66107 15.918 4.35326 15.7985C3.946 15.6403 3.6551 15.4513 3.34966 15.1458C3.04421 14.8403 2.85513 14.5502 2.69658 14.1427C2.57713 13.8354 2.43477 13.3736 2.39605 12.5227C2.35423 11.6027 2.34587 11.3263 2.34587 8.9958C2.34587 6.66525 2.35423 6.39034 2.39605 5.47034C2.43496 4.61943 2.57713 4.15761 2.69658 3.84998C2.85476 3.4427 3.04421 3.1518 3.34966 2.84634C3.6551 2.54089 3.946 2.3518 4.35326 2.19325C4.66089 2.07325 5.12287 1.93143 5.97376 1.89234C6.77882 1.85598 7.09082 1.84507 8.71731 1.84325V1.84543ZM14.1586 3.29452C13.5804 3.29452 13.1114 3.76307 13.1114 4.34143C13.1114 4.91961 13.5804 5.3887 14.1586 5.3887C14.7368 5.3887 15.2058 4.91961 15.2058 4.34143C15.2058 3.76325 14.7368 3.29416 14.1586 3.29416V3.29452ZM9.5002 4.51816C7.02518 4.51816 5.01851 6.52489 5.01851 8.99998C5.01851 11.4751 7.02518 13.4809 9.5002 13.4809C11.9752 13.4809 13.9812 11.4751 13.9812 8.99998C13.9812 6.52489 11.975 4.51816 9.50001 4.51816H9.5002ZM9.5002 6.09089C11.1067 6.09089 12.4092 7.39325 12.4092 8.99998C12.4092 10.6065 11.1067 11.9091 9.5002 11.9091C7.89352 11.9091 6.59119 10.6065 6.59119 8.99998C6.59119 7.39325 7.89352 6.09089 9.5002 6.09089Z" fill="#807D8F"/>
</svg>
