<svg width="115" height="29" viewBox="0 0 115 29" fill="none" xmlns="http://www.w3.org/2000/svg">
<g clip-path="url(#clip0_15701_244)">
<path d="M58.3635 0.726503C58.0688 0.519595 57.7143 0.422607 57.358 0.422607H51.6238C50.8184 0.422607 50.1202 0.996306 49.9395 1.80572L48.9112 6.42117C48.702 7.35989 48.3554 9.07805 48.0055 10.9667C47.9798 11.1036 47.7957 11.1189 47.7501 10.9878L44.4697 1.60057C44.2229 0.894028 43.5726 0.422607 42.8441 0.422607H36.4897C35.6843 0.422607 34.9861 0.996306 34.8054 1.80572L29.3271 26.3966C29.1282 27.2889 29.6133 28.257 30.6148 28.5438C30.7025 28.5691 30.7943 28.5773 30.8855 28.5773C31.5883 28.5773 34.8293 28.5773 36.7172 28.5773C37.5226 28.5773 38.2203 28.0036 38.4004 27.1942L39.5461 22.0503C39.8043 20.8924 40.103 19.3799 40.392 17.7946C40.417 17.6565 40.6034 17.6424 40.6485 17.7752L43.8633 27.3765C44.1038 28.0948 44.7599 28.5768 45.4963 28.5768H51.9191C52.7245 28.5768 53.4227 28.0031 53.6034 27.1936L59.0817 2.60278C59.2379 1.90153 58.9717 1.15266 58.3641 0.725328L58.3635 0.726503Z" fill="#DAFF00"/>
<path d="M112.3 4.10524C110.227 1.41955 106.948 0 102.817 0C98.6872 0 95.0209 1.34902 91.9537 3.90068C89.8664 5.63706 88.2248 7.82723 87.0996 10.3507C87.0329 10.5 86.8146 10.4212 86.85 10.2613L88.556 2.60398C88.7122 1.90273 88.446 1.15386 87.8383 0.726528C87.5437 0.519621 87.1891 0.422633 86.8329 0.422633H80.4152C79.835 0.422633 79.2935 0.723002 78.9737 1.22205L72.4016 11.4728C72.3361 11.5751 72.1839 11.5439 72.1605 11.424L70.2886 1.85218C70.1262 1.02043 69.4177 0.422633 68.5946 0.422633H62.0014C61.196 0.422633 60.4977 0.996331 60.317 1.80574L54.8388 26.3966C54.6735 27.139 54.9813 27.9337 55.6658 28.3452C55.9315 28.5045 56.237 28.5774 56.5442 28.5774C57.4357 28.5774 60.219 28.5774 61.921 28.5774C62.7264 28.5774 63.4241 28.0037 63.6042 27.1943L64.9386 21.2051C65.011 20.8806 65.0896 20.518 65.174 20.1112C65.2042 19.966 65.406 19.966 65.4345 20.1112L65.9857 22.9209C66.1487 23.7521 66.8572 24.3499 67.6792 24.3499H72.189C72.7721 24.3499 73.3159 24.0466 73.6351 23.5434L75.2505 20.9976C75.332 20.8695 75.5246 20.9535 75.4916 21.1028C75.1313 22.7193 74.3122 26.3966 74.3122 26.3966C74.1469 27.139 74.4547 27.9337 75.1393 28.3452C75.4049 28.5045 75.7099 28.5774 76.0171 28.5774C76.9086 28.5774 79.6925 28.5774 81.3945 28.5774C82.1999 28.5774 82.8976 28.0037 83.0777 27.1943L85.1753 17.7788C85.2107 17.6195 85.4369 17.6465 85.4369 17.8099C85.4329 20.5532 86.1796 22.9903 87.6389 24.8801C89.7205 27.5757 93.0094 29.0006 97.1504 29.0006C101.291 29.0006 104.938 27.6463 108.003 25.084C111.055 22.5324 113.153 19.0108 114.069 14.8991C115.017 10.6434 114.388 6.80973 112.3 4.10524H112.3ZM95.0403 14.8991C95.9261 10.9238 98.5595 8.35508 101.75 8.35508C102.972 8.35508 103.88 8.72716 104.446 9.46015C105.204 10.4424 105.375 12.0906 104.928 14.1009C104.06 17.9939 101.367 20.6097 98.226 20.6097C96.992 20.6097 96.08 20.2388 95.5145 19.5075C94.7633 18.5347 94.5951 16.8983 95.0403 14.8991Z" fill="#DAFF00"/>
<path d="M32.0073 9.51362C32.1247 8.97048 31.7263 8.45145 31.1882 8.41207H24.1618C23.7799 8.38385 23.4139 8.60487 23.2709 8.97166C23.2372 9.05748 23.2099 9.14682 23.1894 9.2397L20.6808 20.4991C20.6586 20.5991 20.544 20.6367 20.4659 20.5732C20.1638 20.3257 19.787 20.187 19.3937 20.187H11.1783L15.0954 2.60396C15.2515 1.9027 14.9854 1.15384 14.3777 0.726503C14.083 0.519595 13.7285 0.422607 13.3723 0.422607H7.70646C6.90105 0.422607 6.2028 0.996306 6.02211 1.80572L0.543839 26.3966C0.387659 27.0978 0.653849 27.8467 1.26147 28.274C1.55616 28.4809 1.9107 28.5779 2.26695 28.5779H18.3181C18.8141 28.5779 19.2695 28.3599 19.5881 28.0036C19.6394 27.946 19.7283 27.9449 19.7796 28.0025C19.8623 28.0953 19.9563 28.1812 20.0601 28.257C20.3587 28.4745 20.7224 28.5779 21.0889 28.5779H26.4486C27.254 28.5779 27.9523 28.0042 28.133 27.1948L32.005 9.52478C32.0056 9.52126 32.0067 9.51773 32.0073 9.5142V9.51362Z" fill="#DAFF00"/>
<path d="M24.3054 7.3934L31.7592 7.39164C32.0192 7.40809 32.2797 7.31287 32.4558 7.11478C32.6137 6.93726 32.73 6.72683 32.7892 6.49347L33.7474 2.32298C33.8654 1.86214 33.7429 1.37779 33.4151 1.00806C33.0873 0.638332 32.5897 0.422607 32.0636 0.422607H26.3585C25.5531 0.422607 24.8548 0.922243 24.6741 1.62761L23.4891 6.26305C23.488 6.26658 23.4874 6.27069 23.4863 6.27422C23.3506 6.82264 23.757 7.35813 24.3054 7.3934Z" fill="#DAFF00"/>
</g>
<defs>
<clipPath id="clip0_15701_244">
<rect width="114" height="29" fill="white" transform="translate(0.5)"/>
</clipPath>
</defs>
</svg>
