<svg width="17" height="16" viewBox="0 0 17 16" fill="none" xmlns="http://www.w3.org/2000/svg">
<path d="M8.02193 2.30217C8.17559 1.99088 8.25242 1.83523 8.35672 1.7855C8.44746 1.74224 8.55289 1.74224 8.64363 1.7855C8.74793 1.83523 8.82476 1.99088 8.97842 2.30217L10.4362 5.25548C10.4816 5.34738 10.5042 5.39333 10.5374 5.42901C10.5667 5.4606 10.6019 5.48619 10.641 5.50437C10.6852 5.52491 10.7359 5.53232 10.8373 5.54714L14.0982 6.02376C14.4415 6.07395 14.6132 6.09905 14.6927 6.18292C14.7618 6.25589 14.7943 6.35616 14.7812 6.45581C14.766 6.57034 14.6417 6.69141 14.3931 6.93355L12.0345 9.23091C11.9609 9.30252 11.9242 9.33833 11.9004 9.38093C11.8794 9.41866 11.866 9.4601 11.8608 9.50296C11.8549 9.55137 11.8636 9.60196 11.8809 9.70312L12.4375 12.948C12.4962 13.2903 12.5255 13.4614 12.4704 13.563C12.4224 13.6513 12.3371 13.7133 12.2382 13.7316C12.1246 13.7527 11.9709 13.6719 11.6636 13.5102L8.74841 11.9772C8.65758 11.9294 8.61217 11.9055 8.56432 11.8961C8.52196 11.8878 8.47839 11.8878 8.43602 11.8961C8.38818 11.9055 8.34276 11.9294 8.25193 11.9772L5.33678 13.5102C5.02944 13.6719 4.87577 13.7527 4.76214 13.7316C4.66328 13.7133 4.57798 13.6513 4.52999 13.563C4.47483 13.4614 4.50418 13.2903 4.56288 12.948L5.11942 9.70312C5.13677 9.60196 5.14545 9.55137 5.13958 9.50296C5.13438 9.4601 5.1209 9.41866 5.0999 9.38093C5.07618 9.33833 5.03941 9.30252 4.96589 9.2309L2.6072 6.93355C2.3586 6.69141 2.23431 6.57034 2.21918 6.45581C2.20602 6.35616 2.23853 6.25589 2.30766 6.18292C2.38712 6.09905 2.55881 6.07395 2.90219 6.02376L6.16304 5.54714C6.26445 5.53232 6.31515 5.52491 6.35931 5.50437C6.39841 5.48619 6.4336 5.4606 6.46295 5.42901C6.4961 5.39333 6.51878 5.34738 6.56415 5.25548L8.02193 2.30217Z" fill="white" stroke="white" stroke-width="1.33" stroke-linecap="round" stroke-linejoin="round"/>
</svg>
