<svg width="15" height="16" viewBox="0 0 15 16" fill="none" xmlns="http://www.w3.org/2000/svg">
<path d="M5.49006 13.2589C6.82506 13.2589 7.90728 12.3032 7.90728 10.8417V0H10.8062C10.6436 1.97723 12.6092 3.88718 14.7768 3.8435V6.56947C12.923 6.56947 11.3467 5.78561 10.798 5.35059V10.8417C10.798 13.2589 8.89639 16 5.49006 16C2.08373 16 0.223633 13.2589 0.223633 10.8417C0.223633 7.43001 3.83407 5.45136 6.22534 5.93497V8.71154C6.10504 8.66898 5.79482 8.60606 5.53058 8.60606C4.18449 8.55644 3.07283 9.6482 3.07283 10.8417C3.07283 12.1767 4.15506 13.2589 5.49006 13.2589Z" fill="#807D8F"/>
</svg>
