<svg width="17" height="16" viewBox="0 0 17 16" fill="none" xmlns="http://www.w3.org/2000/svg">
<path d="M8.5 0.5C10.376 2.55376 11.4421 5.21903 11.5 8C11.4421 10.781 10.376 13.4462 8.5 15.5M8.5 0.5C6.62404 2.55376 5.55794 5.21903 5.5 8C5.55794 10.781 6.62404 13.4462 8.5 15.5M8.5 0.5C4.35786 0.5 1 3.85786 1 8C1 12.1421 4.35786 15.5 8.5 15.5M8.5 0.5C12.6421 0.5 16 3.85786 16 8C16 12.1421 12.6421 15.5 8.5 15.5M1.37501 5.75H15.625M1.375 10.25H15.625" stroke="#807D8F" stroke-width="0.9975" stroke-linecap="round" stroke-linejoin="round"/>
</svg>
