<svg width="21" height="15" viewBox="0 0 21 15" fill="none" xmlns="http://www.w3.org/2000/svg">
<path fill-rule="evenodd" clip-rule="evenodd" d="M18.4231 1.12119C19.2905 1.35471 19.9744 2.03861 20.2079 2.90598C20.6416 4.49061 20.6249 7.79332 20.6249 7.79332C20.6249 7.79332 20.6249 11.0793 20.2079 12.664C19.9744 13.5314 19.2905 14.2152 18.4231 14.4488C16.8385 14.8658 10.5 14.8658 10.5 14.8658C10.5 14.8658 4.17811 14.8658 2.5768 14.4321C1.70943 14.1986 1.02553 13.5147 0.792008 12.6473C0.375 11.0793 0.375 7.77664 0.375 7.77664C0.375 7.77664 0.375 4.49061 0.792008 2.90598C1.02553 2.03861 1.72611 1.33803 2.5768 1.10451C4.16143 0.6875 10.5 0.6875 10.5 0.6875C10.5 0.6875 16.8385 0.6875 18.4231 1.12119ZM13.7526 7.66082L8.48163 10.6966V4.625L13.7526 7.66082Z" fill="#807D8F"/>
</svg>
